<?xml version="1.0" standalone="no"?><!DOCTYPE svg PUBLIC "-//W3C//DTD SVG 1.1//EN" "http://www.w3.org/Graphics/SVG/1.1/DTD/svg11.dtd"><svg t="1705395264160" class="icon" viewBox="0 0 1024 1024" version="1.1" xmlns="http://www.w3.org/2000/svg" p-id="11086" xmlns:xlink="http://www.w3.org/1999/xlink" width="200" height="200"><path d="M839.623095 851.382857H833.771666l-394.971428-84.845714c-14.628571-2.925714-23.405714-17.554286-20.48-32.182857l114.102857-538.331429c2.925714-11.702857 14.628571-23.405714 26.331428-23.405714h5.851429l394.971429 84.845714c5.851429 2.925714 14.628571 5.851429 17.554285 11.702857 2.925714 5.851429 5.851429 11.702857 2.925715 20.48l-114.102858 538.331429c-2.925714 14.628571-14.628571 23.405714-26.331428 23.405714" fill="#D3D1D7" p-id="11087"></path><path d="M558.754523 143.36c-26.331429 0-49.737143 17.554286-55.588571 43.885714l-114.102857 538.331429c-5.851429 29.257143 11.702857 58.514286 43.885714 67.291428L827.920238 877.714286h11.702857c26.331429 0 49.737143-17.554286 55.588571-43.885715L1009.314523 295.497143c5.851429-29.257143-11.702857-58.514286-43.885714-67.291429L570.457381 146.285714c-2.925714-2.925714-5.851429-2.925714-11.702858-2.925714m0 55.588571l394.971429 84.845715-114.102857 538.331428-394.971429-84.845714 114.102857-538.331429" fill="#3A3644" p-id="11088"></path><path d="M868.880238 506.148571l11.702857-58.514285c0-2.925714 0-5.851429-2.925714-5.851429l-321.828572-67.291428c-2.925714 0-5.851429 0-5.851428 2.925714l-11.702858 58.514286c0 2.925714 0 5.851429 2.925715 5.851428l321.828571 67.291429c2.925714 2.925714 5.851429 0 5.851429-2.925715m-292.571429-210.651428l321.828572 67.291428c2.925714 0 5.851429 2.925714 2.925714 5.851429l-5.851429 26.331429c0 2.925714-2.925714 5.851429-5.851428 2.925714l-321.828572-67.291429c-2.925714 0-5.851429-2.925714-2.925714-5.851428l5.851429-26.331429s2.925714-2.925714 5.851428-2.925714" fill="#3A3644" p-id="11089"></path><path d="M184.263095 748.982857c-11.702857 0-23.405714-8.777143-26.331429-23.405714L43.828809 187.245714c-2.925714-14.628571 5.851429-29.257143 20.48-32.182857l394.971429-84.845714h5.851428c11.702857 0 23.405714 8.777143 26.331429 23.405714l114.102857 538.331429c2.925714 14.628571-5.851429 29.257143-20.48 32.182857L190.114523 748.982857h-5.851428" fill="#D5DEE0" p-id="11090"></path><path d="M465.131666 43.885714H453.428809L58.457381 128.731429C29.200238 134.582857 8.720238 163.84 14.571666 193.097143l117.028572 541.257143c5.851429 26.331429 29.257143 43.885714 55.588571 43.885714h11.702857l394.971429-84.845714c29.257143-5.851429 49.737143-35.108571 43.885714-67.291429L517.794523 87.771429c-5.851429-26.331429-29.257143-43.885714-52.662857-43.885715m0 55.588572l114.102857 538.331428-394.971428 84.845715L70.160238 181.394286l394.971428-81.92" fill="#3A3644" p-id="11091"></path><path d="M488.537381 389.12l-8.777143-43.885714c0-2.925714-2.925714-5.851429-5.851429-2.925715L152.080238 409.6c-2.925714 0-5.851429 2.925714-2.925715 5.851429l8.777143 43.885714c0 2.925714 2.925714 5.851429 5.851429 2.925714l321.828571-67.291428s2.925714-2.925714 2.925715-5.851429m-29.257143-102.4l-321.828572 67.291429c-2.925714 0-5.851429 0-5.851428-2.925715l-8.777143-43.885714c0-2.925714 0-5.851429 2.925714-5.851429l321.828572-67.291428c2.925714 0 5.851429 0 5.851428 2.925714l8.777143 43.885714c2.925714 2.925714 0 5.851429-2.925714 5.851429" fill="#3A3644" p-id="11092"></path><path d="M245.703095 778.24c-14.628571 0-26.331429-11.702857-26.331429-26.331429V61.44c0-14.628571 11.702857-26.331429 26.331429-26.331429h532.48c14.628571 0 26.331429 11.702857 26.331428 26.331429v687.542857c0 14.628571-11.702857 26.331429-26.331428 26.331429H245.703095z" fill="#FFFFFF" p-id="11093"></path><path d="M778.183095 5.851429H245.703095C213.520238 5.851429 190.114523 29.257143 190.114523 61.44v687.542857c0 29.257143 26.331429 55.588571 55.588572 55.588572h532.48c29.257143 0 55.588571-26.331429 55.588571-55.588572V61.44C833.771666 29.257143 810.365952 5.851429 778.183095 5.851429m0 55.588571v687.542857H245.703095V61.44h532.48" fill="#3A3644" p-id="11094"></path><path d="M213.520238 190.171429h596.845714V149.211429H213.520238z" fill="#3A3644" p-id="11095"></path><path d="M602.640238 105.325714c0 14.628571 11.702857 26.331429 26.331428 26.331429s29.257143-8.777143 29.257143-26.331429-11.702857-26.331429-26.331428-26.331428-29.257143 11.702857-29.257143 26.331428" fill="#92D976" p-id="11096"></path><path d="M681.634523 105.325714c0 14.628571 11.702857 26.331429 26.331429 26.331429s26.331429-11.702857 26.331429-26.331429-11.702857-26.331429-26.331429-26.331428-26.331429 11.702857-26.331429 26.331428" fill="#F44D5A" p-id="11097"></path><path d="M456.354523 699.245714h280.868572V359.862857h-280.868572v339.382857z m-166.765714 0H424.171666V359.862857H289.588809v339.382857z m0-374.491428h447.634286V225.28H289.588809v99.474286z" fill="#D8D7DA" p-id="11098"></path><path d="M245.703095 713.874286v-198.948572h76.068571c23.405714 70.217143 90.697143 122.88 169.691429 122.88s146.285714-52.662857 169.691428-122.88h119.954286v198.948572H245.703095z" fill="#B8B7BC" p-id="11099"></path><path d="M102.343095 971.337143c-32.182857 0-61.44-26.331429-61.44-61.44v-242.834286c0-32.182857 26.331429-61.44 61.44-61.44h272.091428c11.702857 70.217143 73.142857 122.88 146.285715 122.88s134.582857-52.662857 146.285714-122.88H921.543095c32.182857 0 61.44 26.331429 61.44 61.44v242.834286c0 32.182857-26.331429 61.44-61.44 61.44H102.343095z" fill="#A5DAE4" p-id="11100"></path><path d="M921.543095 579.291429h-275.017143c0 67.291429-55.588571 122.88-122.88 122.88s-122.88-55.588571-122.88-122.88H102.343095c-49.737143 0-87.771429 40.96-87.771429 87.771428v242.834286c0 49.737143 40.96 87.771429 87.771429 87.771428h819.2c49.737143 0 87.771429-40.96 87.771428-87.771428v-242.834286c0-49.737143-40.96-87.771429-87.771428-87.771428m0 55.588571c8.777143 0 17.554286 2.925714 23.405714 8.777143 5.851429 5.851429 8.777143 14.628571 8.777143 23.405714v242.834286c0 8.777143-2.925714 17.554286-8.777143 23.405714-5.851429 5.851429-14.628571 8.777143-23.405714 8.777143H102.343095c-8.777143 0-17.554286-2.925714-23.405714-8.777143-5.851429-5.851429-8.777143-14.628571-8.777143-23.405714v-242.834286c0-8.777143 2.925714-17.554286 8.777143-23.405714 5.851429-5.851429 14.628571-8.777143 23.405714-8.777143h251.611428c23.405714 70.217143 90.697143 122.88 169.691429 122.88s146.285714-52.662857 169.691429-122.88H921.543095" fill="#3A3644" p-id="11101"></path><path d="M102.343095 945.005714c-5.851429 0-11.702857 0-14.628572-2.925714h681.691429c78.994286 0 143.36-64.365714 143.36-143.36v-163.84h8.777143c17.554286 0 32.182857 14.628571 32.182857 32.182857v242.834286c0 17.554286-14.628571 32.182857-32.182857 32.182857H102.343095z" fill="#77C0D1" p-id="11102"></path></svg>